<svg width="36" height="19" viewBox="0 0 36 19" fill="none" xmlns="http://www.w3.org/2000/svg">
<path d="M17.9992 18C17.4151 18.0011 16.849 17.7977 16.3992 17.425L1.39922 4.92496C0.888683 4.50061 0.567622 3.89083 0.506673 3.22977C0.445723 2.5687 0.649878 1.9105 1.07422 1.39996C1.49857 0.889414 2.10835 0.568354 2.76942 0.507405C3.43048 0.446456 4.08868 0.650609 4.59922 1.07496L17.9992 12.275L31.3992 1.47496C31.6549 1.26729 31.9492 1.11221 32.265 1.01863C32.5809 0.925055 32.9121 0.89482 33.2397 0.929668C33.5673 0.964516 33.8847 1.06376 34.1738 1.22169C34.4629 1.37963 34.7179 1.59314 34.9242 1.84996C35.1532 2.10701 35.3266 2.40858 35.4336 2.73576C35.5405 3.06294 35.5788 3.4087 35.5459 3.75135C35.5131 4.09401 35.4098 4.42619 35.2426 4.72709C35.0754 5.02798 34.8479 5.2911 34.5742 5.49996L19.5742 17.575C19.1115 17.8887 18.557 18.0384 17.9992 18V18Z" fill="white"/>
</svg>
